<?xml version="1.0" encoding="UTF-8"?>
<!DOCTYPE svg PUBLIC "-//W3C//DTD SVG 1.1//EN" "http://www.w3.org/Graphics/SVG/1.1/DTD/svg11.dtd">
<svg xmlns="http://www.w3.org/2000/svg" version="1.1" width="512px" height="512px" style="shape-rendering:geometricPrecision; text-rendering:geometricPrecision; image-rendering:optimizeQuality; fill-rule:evenodd; clip-rule:evenodd" xmlns:xlink="http://www.w3.org/1999/xlink">
<g><path style="opacity:0.999" fill="#ff6a15" d="M 81.5,-0.5 C 127.833,-0.5 174.167,-0.5 220.5,-0.5C 260.833,33.5 301.167,67.5 341.5,101.5C 324.847,105.663 308.18,109.83 291.5,114C 280.101,119.086 273.601,127.92 272,140.5C 270.416,161.078 273.916,180.745 282.5,199.5C 280.405,198.588 278.405,197.421 276.5,196C 202.92,133.246 128.92,71.0796 54.5,9.5C 63.0754,4.97539 72.0754,1.64206 81.5,-0.5 Z"/></g>
<g><path style="opacity:0.997" fill="#ff691b" d="M 220.5,-0.5 C 290.167,-0.5 359.833,-0.5 429.5,-0.5C 474.474,10.8075 501.807,39.1408 511.5,84.5C 511.5,137.5 511.5,190.5 511.5,243.5C 489.46,225.156 467.46,206.823 445.5,188.5C 448.166,185.001 451.333,182.001 455,179.5C 463.959,168.817 467.292,156.484 465,142.5C 461.505,123.338 452.672,107.172 438.5,94C 429.103,86.4264 418.437,83.7597 406.5,86C 384.771,91.0158 363.105,96.1825 341.5,101.5C 301.167,67.5 260.833,33.5 220.5,-0.5 Z"/></g>
<g><path style="opacity:0.998" fill="#ff6b11" d="M 54.5,9.5 C 128.92,71.0796 202.92,133.246 276.5,196C 278.405,197.421 280.405,198.588 282.5,199.5C 284.666,202.498 286.333,205.832 287.5,209.5C 274.951,231.311 266.451,254.645 262,279.5C 261.502,282.482 261.335,285.482 261.5,288.5C 253.5,288.5 245.5,288.5 237.5,288.5C 237.511,266.199 230.011,246.865 215,230.5C 198.349,211.507 178.349,197.173 155,187.5C 137,156.833 119,126.167 101,95.5C 93.3306,84.2231 83.164,81.3898 70.5,87C 61.7125,92.0763 57.8792,99.5763 59,109.5C 60.4491,114.399 62.4491,119.065 65,123.5C 81.0828,150.001 97.4161,176.334 114,202.5C 115.707,204.909 116.54,207.575 116.5,210.5C 77.2276,178.567 38.2276,146.234 -0.5,113.5C -0.5,103.833 -0.5,94.1667 -0.5,84.5C 5.89941,50.6835 24.2327,25.6835 54.5,9.5 Z"/></g>
<g><path style="opacity:1" fill="#fffefd" d="M 282.5,199.5 C 273.916,180.745 270.416,161.078 272,140.5C 273.601,127.92 280.101,119.086 291.5,114C 308.18,109.83 324.847,105.663 341.5,101.5C 363.105,96.1825 384.771,91.0158 406.5,86C 418.437,83.7597 429.103,86.4264 438.5,94C 452.672,107.172 461.505,123.338 465,142.5C 467.292,156.484 463.959,168.817 455,179.5C 451.333,182.001 448.166,185.001 445.5,188.5C 418.684,205.416 392.684,223.582 367.5,243C 360.32,248.093 352.653,252.426 344.5,256C 340.161,266.855 336.827,278.022 334.5,289.5C 355.159,290.361 375.826,290.028 396.5,288.5C 404.905,288.431 413.238,289.097 421.5,290.5C 421.73,301.565 421.064,312.565 419.5,323.5C 415.865,351.915 406.031,377.915 390,401.5C 382.959,409.038 376.126,416.704 369.5,424.5C 364.373,428.455 359.373,432.622 354.5,437C 351.5,438 348.5,439 345.5,440C 298.835,440.5 252.168,440.667 205.5,440.5C 186.164,440.667 166.83,440.5 147.5,440C 144.554,439.194 141.888,437.861 139.5,436C 125.897,423.402 113.397,409.902 102,395.5C 89.5794,375.658 80.7461,354.325 75.5,331.5C 73.5618,321.765 72.2284,311.932 71.5,302C 71.2442,297.425 72.9109,293.758 76.5,291C 92.0708,289.531 107.737,289.031 123.5,289.5C 115.41,263.66 113.077,237.327 116.5,210.5C 116.54,207.575 115.707,204.909 114,202.5C 97.4161,176.334 81.0828,150.001 65,123.5C 62.4491,119.065 60.4491,114.399 59,109.5C 57.8792,99.5763 61.7125,92.0763 70.5,87C 83.164,81.3898 93.3306,84.2231 101,95.5C 119,126.167 137,156.833 155,187.5C 178.349,197.173 198.349,211.507 215,230.5C 230.011,246.865 237.511,266.199 237.5,288.5C 245.5,288.5 253.5,288.5 261.5,288.5C 261.335,285.482 261.502,282.482 262,279.5C 266.451,254.645 274.951,231.311 287.5,209.5C 286.333,205.832 284.666,202.498 282.5,199.5 Z"/></g>
<g><path style="opacity:1" fill="#ff6d15" d="M 80.5,98.5 C 82.5824,98.472 84.4157,99.1387 86,100.5C 102.966,128.934 119.799,157.434 136.5,186C 133.934,189.384 130.6,191.884 126.5,193.5C 125.522,193.023 124.689,192.357 124,191.5C 109.918,167.667 95.5846,144 81,120.5C 78.3558,115.379 75.8558,110.212 73.5,105C 75.7293,102.6 78.0626,100.433 80.5,98.5 Z"/></g>
<g><path style="opacity:0.999" fill="#ff6b0a" d="M -0.5,113.5 C 38.2276,146.234 77.2276,178.567 116.5,210.5C 113.077,237.327 115.41,263.66 123.5,289.5C 107.737,289.031 92.0708,289.531 76.5,291C 72.9109,293.758 71.2442,297.425 71.5,302C 72.2284,311.932 73.5618,321.765 75.5,331.5C 50.4597,309.791 25.1263,288.457 -0.5,267.5C -0.5,216.167 -0.5,164.833 -0.5,113.5 Z"/></g>
<g><path style="opacity:1" fill="#ff6b18" d="M 291.5,130.5 C 298.396,131.115 304.063,134.115 308.5,139.5C 316.398,147.739 322.731,157.072 327.5,167.5C 317.377,175.789 308.044,184.955 299.5,195C 298.552,195.483 297.552,195.649 296.5,195.5C 292.489,182.633 288.989,169.633 286,156.5C 284.124,146.975 285.957,138.308 291.5,130.5 Z"/></g>
<g><path style="opacity:1" fill="#ff6b19" d="M 406.5,100.5 C 422.529,99.3633 434.029,106.03 441,120.5C 446.381,129.641 449.547,139.475 450.5,150C 450.429,155.88 448.929,161.38 446,166.5C 441.633,171.258 436.8,175.425 431.5,179C 410.641,192.596 390.307,206.929 370.5,222C 368.167,223.167 365.833,224.333 363.5,225.5C 359.427,207.534 354.594,189.868 349,172.5C 359.689,166.072 370.856,160.572 382.5,156C 399.647,150.095 416.98,144.762 434.5,140C 441.6,137.694 443.267,133.361 439.5,127C 430.672,124.893 422.005,125.559 413.5,129C 389.039,137.314 365.205,147.147 342,158.5C 340.395,157.899 339.062,156.899 338,155.5C 332.18,144.171 324.68,134.171 315.5,125.5C 319.441,123.011 323.775,121.177 328.5,120C 354.626,113.468 380.626,106.968 406.5,100.5 Z"/></g>
<g><path style="opacity:1" fill="#ff6a15" d="M 445.5,188.5 C 467.46,206.823 489.46,225.156 511.5,243.5C 511.5,295.167 511.5,346.833 511.5,398.5C 481.206,373.378 451.04,348.044 421,322.5C 420.617,323.056 420.117,323.389 419.5,323.5C 421.064,312.565 421.73,301.565 421.5,290.5C 413.238,289.097 404.905,288.431 396.5,288.5C 375.826,290.028 355.159,290.361 334.5,289.5C 336.827,278.022 340.161,266.855 344.5,256C 352.653,252.426 360.32,248.093 367.5,243C 392.684,223.582 418.684,205.416 445.5,188.5 Z"/></g>
<g><path style="opacity:1" fill="#ff6e16" d="M 166.5,211.5 C 166.897,210.475 167.563,210.308 168.5,211C 184.877,221.708 199.044,234.874 211,250.5C 217.472,258.944 221.306,268.444 222.5,279C 222.196,282.511 221.863,286.011 221.5,289.5C 218.223,289.784 215.057,289.451 212,288.5C 207.018,274.203 200.685,260.536 193,247.5C 184.303,235.317 175.47,223.317 166.5,211.5 Z"/></g>
<g><path style="opacity:1" fill="#ff6b14" d="M 318.5,279.5 C 317.523,282.287 317.19,285.287 317.5,288.5C 304.5,288.5 291.5,288.5 278.5,288.5C 277.817,278.579 278.984,268.912 282,259.5C 288.389,240.72 297.389,223.387 309,207.5C 313.333,202.5 317.667,197.5 322,192.5C 325.748,188.919 329.915,185.919 334.5,183.5C 339.978,192.752 343.811,202.752 346,213.5C 347.763,222.585 346.097,230.918 341,238.5C 326.388,248.275 318.888,261.942 318.5,279.5 Z"/></g>
<g><path style="opacity:1" fill="#ff6f15" d="M 130.5,223.5 C 131.558,224.6 132.392,225.934 133,227.5C 138.256,248.675 145.756,269.008 155.5,288.5C 150.208,289.495 144.875,289.828 139.5,289.5C 135.552,276.706 132.385,263.706 130,250.5C 129.196,241.422 129.363,232.422 130.5,223.5 Z"/></g>
<g><path style="opacity:1" fill="#ff6c10" d="M 143.5,208.5 C 146.394,209.882 148.894,211.882 151,214.5C 167.079,235.645 181.413,257.978 194,281.5C 194.977,283.74 195.477,286.073 195.5,288.5C 188.87,289.546 182.203,289.713 175.5,289C 173.376,287.878 171.543,286.378 170,284.5C 158.28,260.173 149.446,234.839 143.5,208.5 Z"/></g>
<g><path style="opacity:0.997" fill="#ff6c04" d="M -0.5,267.5 C 25.1263,288.457 50.4597,309.791 75.5,331.5C 80.7461,354.325 89.5794,375.658 102,395.5C 113.397,409.902 125.897,423.402 139.5,436C 141.888,437.861 144.554,439.194 147.5,440C 166.83,440.5 186.164,440.667 205.5,440.5C 233.5,464.167 261.5,487.833 289.5,511.5C 221.167,511.5 152.833,511.5 84.5,511.5C 37.8354,501.502 9.50202,473.169 -0.5,426.5C -0.5,373.5 -0.5,320.5 -0.5,267.5 Z"/></g>
<g><path style="opacity:1" fill="#ffcaa9" d="M 318.5,279.5 C 318.5,282.833 318.5,286.167 318.5,289.5C 304.99,289.829 291.656,289.496 278.5,288.5C 291.5,288.5 304.5,288.5 317.5,288.5C 317.19,285.287 317.523,282.287 318.5,279.5 Z"/></g>
<g><path style="opacity:0.996" fill="#ff6b10" d="M 511.5,398.5 C 511.5,407.833 511.5,417.167 511.5,426.5C 505.211,458.76 487.878,483.093 459.5,499.5C 429.5,474.5 399.5,449.5 369.5,424.5C 376.126,416.704 382.959,409.038 390,401.5C 406.031,377.915 415.865,351.915 419.5,323.5C 420.117,323.389 420.617,323.056 421,322.5C 451.04,348.044 481.206,373.378 511.5,398.5 Z"/></g>
<g><path style="opacity:0.998" fill="#ff6b09" d="M 369.5,424.5 C 399.5,449.5 429.5,474.5 459.5,499.5C 449.197,505.488 438.197,509.488 426.5,511.5C 380.833,511.5 335.167,511.5 289.5,511.5C 261.5,487.833 233.5,464.167 205.5,440.5C 252.168,440.667 298.835,440.5 345.5,440C 348.5,439 351.5,438 354.5,437C 359.373,432.622 364.373,428.455 369.5,424.5 Z"/></g>
</svg>
