<?xml version="1.0" encoding="UTF-8"?>
<!DOCTYPE svg PUBLIC "-//W3C//DTD SVG 1.1//EN" "http://www.w3.org/Graphics/SVG/1.1/DTD/svg11.dtd">
<svg xmlns="http://www.w3.org/2000/svg" version="1.1" width="301px" height="647px" style="shape-rendering:geometricPrecision; text-rendering:geometricPrecision; image-rendering:optimizeQuality; fill-rule:evenodd; clip-rule:evenodd" xmlns:xlink="http://www.w3.org/1999/xlink">
<g><path style="opacity:1" fill="#fb9400" d="M -0.5,-0.5 C 99.8333,-0.5 200.167,-0.5 300.5,-0.5C 300.5,215.167 300.5,430.833 300.5,646.5C 200.167,646.5 99.8333,646.5 -0.5,646.5C -0.5,430.833 -0.5,215.167 -0.5,-0.5 Z"/></g>
<g><path style="opacity:1" fill="#fffefc" d="M 141.5,278.5 C 164.727,276.188 179.56,286.188 186,308.5C 187.237,329.257 178.071,343.09 158.5,350C 136.985,353.103 122.485,344.603 115,324.5C 110.983,301.699 119.816,286.366 141.5,278.5 Z"/></g>
<g><path style="opacity:1" fill="#fcab3c" d="M 146.5,298.5 C 151.417,298.8 156.084,299.966 160.5,302C 165.224,304.435 166.724,308.269 165,313.5C 164.333,314.833 163.333,315.833 162,316.5C 161.667,320.833 161.333,325.167 161,329.5C 160.5,330 160,330.5 159.5,331C 152.833,331.667 146.167,331.667 139.5,331C 139,330.5 138.5,330 138,329.5C 138.286,323.599 136.953,318.266 134,313.5C 133.333,310.833 133.333,308.167 134,305.5C 138.033,302.753 142.199,300.42 146.5,298.5 Z"/></g>
<g><path style="opacity:1" fill="#fffdfa" d="M 145.5,300.5 C 152.481,298.827 156.481,301.493 157.5,308.5C 158.747,306.994 158.747,305.494 157.5,304C 161.651,303.302 163.984,305.135 164.5,309.5C 164.159,312.187 162.826,314.187 160.5,315.5C 159.52,318.086 159.187,320.753 159.5,323.5C 152.833,323.5 146.167,323.5 139.5,323.5C 139.813,320.753 139.48,318.086 138.5,315.5C 132.982,310.929 133.316,306.929 139.5,303.5C 140.167,303.667 140.833,303.833 141.5,304C 140.446,305.388 140.28,306.888 141,308.5C 141.916,305.486 143.416,302.819 145.5,300.5 Z"/></g>
<g><path style="opacity:1" fill="#fcab40" d="M 156.5,313.5 C 157.497,313.47 158.164,313.97 158.5,315C 157.711,316.626 156.711,318.126 155.5,319.5C 155.167,319.167 154.833,318.833 154.5,318.5C 155.95,317.15 156.617,315.484 156.5,313.5 Z"/></g>
<g><path style="opacity:1" fill="#fcab40" d="M 140.5,313.5 C 142.093,314.348 143.26,315.681 144,317.5C 144.688,318.332 144.521,318.998 143.5,319.5C 141.585,317.929 140.585,315.929 140.5,313.5 Z"/></g>
<g><path style="opacity:1" fill="#fcb651" d="M 148.5,313.5 C 149.693,313.97 150.36,314.97 150.5,316.5C 150.167,317.5 149.833,318.5 149.5,319.5C 148.534,317.604 148.201,315.604 148.5,313.5 Z"/></g>
<g><path style="opacity:1" fill="#fffefe" d="M 139.5,325.5 C 146.167,325.5 152.833,325.5 159.5,325.5C 159.5,326.833 159.5,328.167 159.5,329.5C 152.833,329.5 146.167,329.5 139.5,329.5C 139.5,328.167 139.5,326.833 139.5,325.5 Z"/></g>
</svg>
